<svg width="38" height="38" viewBox="0 0 38 38" fill="none" xmlns="http://www.w3.org/2000/svg">
<path fill-rule="evenodd" clip-rule="evenodd" d="M33.7778 38H4.22222C1.8905 38 0 36.1095 0 33.7778V4.22222C0 1.8905 1.8905 0 4.22222 0H33.7778C36.1095 0 38 1.8905 38 4.22222V33.7778C38 36.1095 36.1095 38 33.7778 38Z" fill="#212121"/>
<path d="M30 29H23.0677L8 9H14.9323L30 29ZM23.8937 27.304H26.6539L14.1063 10.696H11.3461L23.8937 27.304Z" fill="white"/>
<path d="M10.2096 29L18 21.1718L16.9812 20L8 29H10.2096Z" fill="white"/>
<path d="M20 16.7124L20.9377 18L29 9H26.9277L20 16.7124Z" fill="white"/>
</svg>
